<?xml version="1.0" encoding="utf-8"?>
<!-- Generator: Adobe Illustrator 18.1.1, SVG Export Plug-In . SVG Version: 6.00 Build 0)  -->
<svg version="1.1" id="Ebene_1" xmlns="http://www.w3.org/2000/svg" xmlns:xlink="http://www.w3.org/1999/xlink" x="0px" y="0px"
	 viewBox="0 0 841.9 595.3" enable-background="new 0 0 841.9 595.3" xml:space="preserve">
<g>
	<rect x="271.4" y="407.5" fill-rule="evenodd" clip-rule="evenodd" fill="#EF7D00" width="514.2" height="9"/>
	<rect x="89.4" y="407.5" fill-rule="evenodd" clip-rule="evenodd" fill="#EF7D00" width="108.7" height="9"/>
	<g>
		<path fill-rule="evenodd" clip-rule="evenodd" fill="#EF7D00" d="M259.4,137.2l-49.8,64.2l-32,51.8l-1.4,2.8l0.5,0.2
			c16.1,2.9,33.5,0.9,48.6,8.2c20.8,9.9,7.5,37.6,2.8,52.6l-4.7,15.2l-0.1,1.6l0.5,0.2l3.2,0.2l5.3-0.4c9.5-1.2,28.1-7,31.2,7.4
			c1.7,7.9-2.4,15.8-4.1,23.3l-12.8,45.6c-3.6,9.7-18.1,8.3-19.3-3.2c0-1.5,0.3-2.8,0.9-4.1l0.1-0.4l0.6-1.8l11.5-43.1l1.6-5.6
			c-12.3,1.9-32.9,4.8-37.3-10.8c-5.1-18.1,8-36.9,11.7-54.3l0.4-3.9l0-0.8l-0.1-0.1l-1.1-0.5c-14.6-4.7-29.8-3.1-44.5-6.6
			c-9-2.1-17.2-10.9-14.9-20.7c4.8-21,34.4-60.2,37-64.1l51.1-65.9c3.5-4.2,9.7-4.7,13.9-1.2C262.4,126.8,262.9,133.1,259.4,137.2
			L259.4,137.2z M246.2,402.6c0.3,0.7,0.6,1.3,0.7,2.1C246.8,403.8,246.6,403.2,246.2,402.6z"/>
	</g>
	<g>
		<path fill-rule="evenodd" clip-rule="evenodd" fill="#312783" d="M284.9,117.7c6.8,5.9,14.2,9.3,23.5,9.3c7.9,0,13.5-2.5,20.6-5.4
			l0,0c-10.9,6.4-20.8,10.6-33.8,8.4c-6.3-1.1-10.5-3.8-15.7-7.1c-1.4-1.5-1.4-3.9,0.1-5.3C281,116.2,283.4,116.2,284.9,117.7z"/>
	</g>
	<path fill-rule="evenodd" clip-rule="evenodd" fill="#312783" d="M292,341.5c2.4,4.1,5.1,7.1,8.1,9c3.1,1.9,6.7,2.9,10.8,2.9
		c4.4,0,7.9-1.2,10.4-3.6c2.5-2.4,3.8-5.7,3.8-9.9c0-2.7-0.7-5.1-2.2-7.3c-1.4-2.1-3.6-4-6.6-5.6c-0.7-0.4-1.8-1-3.2-1.8
		c-8.1-4.4-13.6-8.2-16.4-11.3c-2-2.3-3.6-4.9-4.6-7.9c-1.1-3-1.6-6.2-1.6-9.6c0-8.5,3.1-15.7,9.2-21.4c6.1-5.7,13.9-8.6,23.2-8.6
		c5.6,0,10.7,1,15,3.1c4.4,2.1,8.1,5.2,11.2,9.4l-10.7,13.8c-1.8-3.3-3.9-5.8-6.5-7.4c-2.6-1.6-5.5-2.5-8.9-2.5
		c-3.9,0-7,1.1-9.5,3.3c-2.5,2.2-3.8,5-3.8,8.5c0,4.5,4.1,9,12.3,13.7c1.6,0.9,2.8,1.6,3.6,2.1c7.4,4.4,12.5,8.7,15.2,12.9
		c2.7,4.2,4,9.6,4,16.3c0,9.3-3.1,16.7-9.4,22.4c-6.2,5.7-14.5,8.5-24.9,8.5c-6.3,0-11.9-1.2-16.8-3.7c-4.9-2.5-9.3-6.3-13.2-11.4
		L292,341.5L292,341.5z M436.1,364.5c-4.2,2.1-8.6,3.7-13.5,4.7c-4.8,1-9.9,1.5-15.4,1.5c-14.5,0-26.2-4.3-35.1-13
		c-8.9-8.7-13.3-20-13.3-34.1c0-7.4,1.2-14.4,3.7-21.1c2.5-6.7,6.1-12.7,10.7-18c5.2-5.9,11.4-10.3,18.6-13.4
		c7.2-3.1,15.1-4.6,23.6-4.6c6.1,0,11.7,0.7,17,2.2c5.3,1.5,10.2,3.7,14.9,6.8l-2.9,19.4c-5-3.6-9.9-6.3-14.6-8
		c-4.7-1.7-9.5-2.6-14.4-2.6c-10.4,0-19,3.6-25.6,10.7c-6.6,7.1-9.9,16.3-9.9,27.4c0,9.2,2.6,16.4,7.9,21.9
		c5.2,5.4,12.3,8.1,21.1,8.1c5.7,0,11-0.8,15.9-2.3c4.9-1.5,9.5-3.9,13.6-7.1L436.1,364.5L436.1,364.5z M483,311.8h3.1
		c7.9,0,13.2-1.1,16-3.2c2.8-2.1,4.2-5.8,4.2-11.1c0-4.5-1.2-7.6-3.6-9.4c-2.4-1.8-7-2.7-13.9-2.7h-2.4L483,311.8L483,311.8z
		 M475.7,368.1h-20.9l13.1-99.2h20.7c8.6,0,14.8,0.5,18.7,1.4c3.8,0.9,7.2,2.4,10.1,4.6c3.2,2.4,5.6,5.2,7.3,8.6
		c1.7,3.4,2.5,7.2,2.5,11.4c0,7.6-2.1,13.9-6.4,18.8c-4.3,4.9-10.4,8.3-18.4,10.1l22.5,44.3H502l-20.4-45.5L475.7,368.1L475.7,368.1
		z M535.7,368.1l13.1-99.2h58.9l-2.2,17.5h-38.5l-2.9,22.3h38.3l-2.2,17.1h-38.4l-3.3,24.8h38.5l-2.4,17.5H535.7L535.7,368.1z
		 M614.9,368.1l13.1-99.2h58.9l-2.2,17.5h-38.5l-2.9,22.3h38.3l-2.2,17.1h-38.4l-3.3,24.8h38.5l-2.4,17.5H614.9L614.9,368.1z
		 M694.1,368.1l13.1-99.2h21.6l30.7,51.1c3.3,5.6,5.6,9.8,7,12.7c1.4,2.8,2.5,5.5,3.4,8.1c0.2-4.7,0.4-8.8,0.7-12.4
		c0.3-3.6,0.6-6.4,0.8-8.5l6.8-51h19.5l-13.1,99.2h-20.1l-34.2-57.7c-2.1-3.5-3.8-6.6-5.1-9.3c-1.3-2.7-2.4-5.2-3.3-7.7v3.2
		c0,3.4-0.1,6.7-0.3,9.8c-0.2,3.2-0.4,6.2-0.8,8.9l-7.4,52.7H694.1z"/>
	<path fill-rule="evenodd" clip-rule="evenodd" fill="#312783" d="M93.5,399.7l3-22.8h13.6l-0.5,4h-8.9l-0.7,5.1h8.8l-0.5,3.9h-8.8
		l-0.8,5.7h8.9l-0.5,4H93.5L93.5,399.7z M118.3,386.8h0.7c1.8,0,3-0.2,3.7-0.7c0.7-0.5,1-1.3,1-2.5c0-1-0.3-1.7-0.8-2.2
		c-0.5-0.4-1.6-0.6-3.2-0.6h-0.5L118.3,386.8L118.3,386.8z M116.6,399.7h-4.8l3-22.8h4.8c2,0,3.4,0.1,4.3,0.3
		c0.9,0.2,1.7,0.6,2.3,1.1c0.7,0.5,1.3,1.2,1.7,2c0.4,0.8,0.6,1.7,0.6,2.6c0,1.7-0.5,3.2-1.5,4.3c-1,1.1-2.4,1.9-4.2,2.3l5.2,10.2
		h-5.2l-4.7-10.5L116.6,399.7z"/>
	<path fill-rule="evenodd" clip-rule="evenodd" fill="#312783" d="M92,333.2h4.8c11.9,0,20.1-1.7,24.3-5.2c4.3-3.4,6.4-9.3,6.4-17.6
		c0-7-1.8-11.9-5.3-14.7c-3.6-2.8-10.6-4.2-21.2-4.2h-3.6L92,333.2L92,333.2z M81.1,416.4H49.4l19.8-150.7h29.1
		c14.2,0,24.3,0.7,30.2,2.2c5.9,1.5,11.1,4.1,15.5,7.6c5,3.9,8.7,8.6,11.3,14.4c2.6,5.7,3.9,12.1,3.9,19.2c0,8.3-1.5,15.8-4.5,22.4
		c-3,6.7-7.4,12.2-13.2,16.7c-4.8,3.8-10.5,6.5-17,8.1c-6.6,1.7-16.1,2.5-28.7,2.5h-7.2L81.1,416.4z"/>
</g>
<path fill-rule="evenodd" clip-rule="evenodd" fill="#312783" d="M282.2,442.1h1.2c3,0,5-0.4,6.1-1.3c1.1-0.9,1.6-2.3,1.6-4.4
	c0-1.8-0.5-3-1.3-3.7c-0.9-0.7-2.7-1.1-5.3-1.1h-0.9L282.2,442.1L282.2,442.1z M279.5,463h-8l5-37.9h7.3c3.6,0,6.1,0.2,7.6,0.6
	c1.5,0.4,2.8,1,3.9,1.9c1.2,1,2.2,2.2,2.8,3.6c0.6,1.4,1,3,1,4.8c0,2.1-0.4,4-1.1,5.6c-0.8,1.7-1.9,3.1-3.3,4.2
	c-1.2,1-2.6,1.6-4.3,2c-1.7,0.4-4.1,0.6-7.2,0.6h-1.8L279.5,463L279.5,463z M306.7,447.6h12c0-1.7-0.5-3.1-1.4-4
	c-0.9-0.9-2.2-1.4-3.8-1.4c-1.7,0-3.2,0.5-4.3,1.4C308,444.4,307.2,445.8,306.7,447.6L306.7,447.6z M306.3,451.9h19.2v-0.1
	c0.1-0.9,0.1-1.6,0.1-2c0-4.1-1.1-7.3-3.3-9.6c-2.2-2.3-5.2-3.5-9-3.5c-4.1,0-7.5,1.4-10.2,4.2c-2.7,2.8-4.1,6.3-4.1,10.5
	c0,3.8,1.2,6.8,3.5,9.1c2.3,2.3,5.5,3.4,9.4,3.4c2.6,0,4.9-0.5,6.8-1.4c2-0.9,3.6-2.3,4.8-4.1l-4.9-4.1c-0.9,1.2-1.9,2.1-2.9,2.7
	c-1,0.6-2.2,0.8-3.5,0.8c-1.9,0-3.4-0.5-4.4-1.5c-1.1-1-1.6-2.3-1.6-4V451.9L306.3,451.9z M329.3,463l3.3-25.4h7.3l-0.6,4.4
	c0.9-1.7,2-3.1,3.3-3.9c1.3-0.9,2.8-1.3,4.4-1.3c0.5,0,0.9,0,1.2,0.1c0.4,0,0.7,0.1,1.1,0.2l-1.4,7.3c-0.5-0.2-1.1-0.3-1.5-0.4
	c-0.5-0.1-1-0.1-1.4-0.1c-2,0-3.5,0.7-4.6,2.1c-1.1,1.4-1.9,3.5-2.2,6.3l-1.4,10.8H329.3L329.3,463z M352.9,454.8l-4.3,4.3
	c1.5,1.6,3.2,2.9,4.9,3.6c1.7,0.8,3.5,1.2,5.5,1.2c2.9,0,5.3-0.8,7.1-2.4c1.8-1.6,2.7-3.7,2.7-6.3c0-1.4-0.3-2.7-1-3.8
	c-0.7-1.1-1.7-2-3.1-2.8c-0.4-0.2-1-0.6-1.8-1c-2.6-1.5-4-2.7-4-3.6c0-0.7,0.2-1.2,0.8-1.6c0.5-0.4,1.1-0.6,1.9-0.6
	c0.9,0,1.7,0.2,2.6,0.8c0.9,0.5,1.8,1.3,2.7,2.3l4.4-3.9c-1.3-1.4-2.7-2.4-4.3-3.1c-1.6-0.7-3.2-1-5-1c-2.9,0-5.3,0.8-7.1,2.3
	c-1.9,1.5-2.8,3.5-2.8,5.9c0,1.4,0.4,2.7,1.1,3.7c0.7,1.1,2,2.2,3.8,3.3c0.4,0.3,1.1,0.7,1.9,1.1c2,1.1,3,2.2,3,3.2
	c0,0.7-0.3,1.3-0.8,1.7c-0.5,0.4-1.2,0.7-2.1,0.7c-1.1,0-2.1-0.3-3.2-1C354.7,457,353.8,456.1,352.9,454.8L352.9,454.8z
	 M388.8,443.4c-2.2,0-3.9,0.7-5.3,2.2c-1.3,1.5-2,3.4-2,5.8c0,1.8,0.5,3.2,1.5,4.3c1,1.1,2.4,1.6,4.1,1.6c2.1,0,3.9-0.7,5.2-2.2
	c1.4-1.4,2-3.3,2-5.7c0-1.9-0.5-3.4-1.5-4.4C391.9,444,390.6,443.5,388.8,443.4L388.8,443.4z M388.8,436.8c4,0,7.2,1.1,9.5,3.4
	c2.4,2.3,3.6,5.4,3.6,9.2c0,4.2-1.4,7.7-4.2,10.5c-2.8,2.7-6.4,4.1-10.8,4.1c-3.9,0-7-1.1-9.3-3.4c-2.3-2.3-3.5-5.3-3.5-9.1
	c0-4.3,1.4-7.8,4.1-10.6C381,438.1,384.5,436.8,388.8,436.8L388.8,436.8z M405.5,463l3.3-25.4h6.8l-0.6,4c1.6-1.7,3.1-2.9,4.6-3.7
	c1.5-0.8,3.1-1.2,4.8-1.2c2.7,0,4.9,0.7,6.4,2c1.5,1.4,2.3,3.2,2.3,5.6c0,0.9-0.2,2.5-0.4,4.6c0,0.3-0.1,0.4-0.1,0.6l-1.8,13.4h-7.3
	l1.9-14.2c0.1-0.5,0.1-0.9,0.1-1.3c0-0.4,0-0.7,0-0.9c0-1.2-0.3-2.1-1-2.8c-0.7-0.7-1.6-1-2.9-1c-2.1,0-3.8,0.6-5,1.9
	c-1.2,1.3-1.9,3.2-2.3,5.8l-1.6,12.5H405.5L405.5,463z M457.5,448.9c0-2-0.5-3.5-1.6-4.6c-1-1.1-2.5-1.7-4.3-1.7
	c-2.1,0-3.7,0.8-5,2.3c-1.2,1.6-1.8,3.7-1.8,6.4c0,1.9,0.5,3.3,1.6,4.5c1.1,1.1,2.6,1.7,4.5,1.7c1.9,0,3.5-0.8,4.7-2.4
	C456.9,453.5,457.5,451.5,457.5,448.9L457.5,448.9z M462.6,463h-7.3l0.4-2.8c-0.9,1.3-1.9,2.2-3.2,2.9c-1.3,0.6-2.8,1-4.5,1
	c-3.2,0-5.8-1.1-7.6-3.2c-1.8-2.1-2.7-5.1-2.7-8.9c0-4.4,1.1-8,3.5-10.9c2.3-2.8,5.2-4.3,8.8-4.3c1.8,0,3.4,0.4,4.8,1.1
	c1.4,0.7,2.5,1.8,3.5,3.3l0.4-3.5h7.3L462.6,463L462.6,463z M469.6,463l5.2-40.1h7.3L477,463H469.6L469.6,463z M491.7,447.6h12
	c0-1.7-0.5-3.1-1.4-4c-0.9-0.9-2.2-1.4-3.8-1.4c-1.7,0-3.2,0.5-4.3,1.4C493.1,444.4,492.2,445.8,491.7,447.6L491.7,447.6z
	 M491.3,451.9v0.6c0,1.7,0.5,3.1,1.6,4c1.1,1,2.6,1.5,4.4,1.5c1.3,0,2.4-0.3,3.5-0.8c1-0.6,2-1.5,2.9-2.7l4.9,4.1
	c-1.2,1.8-2.8,3.2-4.8,4.1c-2,0.9-4.2,1.4-6.8,1.4c-3.9,0-7.1-1.1-9.4-3.4c-2.4-2.3-3.5-5.3-3.5-9.1c0-4.3,1.4-7.8,4.1-10.5
	c2.7-2.8,6.1-4.2,10.2-4.2c3.8,0,6.8,1.2,9,3.5c2.2,2.3,3.3,5.5,3.3,9.6c0,0.4,0,1.1-0.1,2v0.1H491.3L491.3,451.9z M514.3,463
	l3.3-25.4h6.8l-0.6,4c1.6-1.7,3.1-2.9,4.6-3.7c1.5-0.8,3.1-1.2,4.8-1.2c2.7,0,4.9,0.7,6.4,2c1.5,1.4,2.3,3.2,2.3,5.6
	c0,0.9-0.2,2.5-0.4,4.6c0,0.3-0.1,0.4-0.1,0.6l-1.8,13.4h-7.3l1.9-14.2c0.1-0.5,0.1-0.9,0.1-1.3c0-0.4,0-0.7,0-0.9
	c0-1.2-0.3-2.1-1-2.8c-0.7-0.7-1.6-1-2.9-1c-2.1,0-3.8,0.6-5,1.9c-1.2,1.3-1.9,3.2-2.3,5.8l-1.6,12.5H514.3L514.3,463z M548,463
	l2.6-19.6h-4.8l0.8-5.8h4.8l1.1-8.4h7.4l-1.2,8.4h4.9l-0.7,5.8h-4.9l-2.6,19.6H548L548,463z M569.7,463l-5.7-25.4h7.7l2.4,12.2
	c0.1,0.9,0.3,1.7,0.4,2.6c0.1,0.9,0.2,1.8,0.4,2.8c0.3-0.7,0.8-1.9,1.5-3.6c0.2-0.5,0.4-0.9,0.5-1.2l5.5-12.8h7.4l1.8,12.2
	c0.1,0.7,0.2,1.4,0.3,2.2c0.1,0.8,0.2,1.9,0.3,3.3c0.3-1,0.6-2,1-3c0.4-1,0.9-2.1,1.4-3.3l5.4-11.4h8.2L594.7,463h-6.9l-2-14
	c-0.2-1.1-0.3-2-0.3-2.8c-0.1-0.8-0.1-1.4-0.2-2.1c-0.7,1.7-1.2,2.8-1.4,3.4c-0.3,0.6-0.5,1.1-0.7,1.5l-6.5,13.9H569.7L569.7,463z
	 M613,427.8c0-1.2,0.4-2.2,1.2-3c0.8-0.8,1.8-1.2,3.1-1.2c1.2,0,2.2,0.4,3,1.3s1.2,1.8,1.2,3c0,1.2-0.4,2.2-1.2,3
	c-0.8,0.8-1.8,1.3-3,1.3c-1.2,0-2.2-0.4-3.1-1.2C613.4,430,613,429,613,427.8L613,427.8z M609.1,463l3.3-25.4h7.3l-3.3,25.4H609.1
	L609.1,463z M645.1,445.8c-1.1-0.9-2.2-1.6-3.2-2c-1-0.4-2-0.7-3.1-0.7c-2.4,0-4.2,0.8-5.7,2.3c-1.4,1.5-2.2,3.5-2.2,6
	c0,1.9,0.6,3.4,1.7,4.5c1.1,1.1,2.7,1.6,4.7,1.6c1.1,0,2.2-0.2,3.3-0.5c1.2-0.3,2.4-0.8,3.8-1.6l-1.2,7c-1.1,0.5-2.2,0.9-3.3,1.1
	c-1.2,0.2-2.4,0.4-3.7,0.4c-3.9,0-7.1-1.1-9.4-3.4c-2.3-2.3-3.5-5.3-3.5-9.1c0-4.3,1.4-7.8,4.1-10.6c2.7-2.8,6.2-4.2,10.5-4.2
	c1.7,0,3.2,0.2,4.7,0.7c1.4,0.5,2.8,1.1,4.1,2.1L645.1,445.8L645.1,445.8z M648.7,463l5.3-40.1h7.3l-3.3,25.6l11.2-10.8h9.2
	l-12.6,11.3l9.8,14.1h-8.4l-9.3-13.8L656,463H648.7L648.7,463z M678.5,463l5.2-40.1h7.3l-5.2,40.1H678.5L678.5,463z M703.5,437.6
	l-1.4,10.6c0,0.3-0.1,0.7-0.2,1.3c-0.2,1.6-0.3,2.7-0.3,3.3c0,1.5,0.4,2.7,1.2,3.5c0.8,0.8,1.9,1.2,3.4,1.2c2,0,3.5-0.7,4.5-2
	c1-1.3,1.7-3.9,2.2-7.8l1.3-10.2h7.3l-1.5,11.1c-0.5,3.5-1,6-1.6,7.7c-0.6,1.6-1.5,3-2.5,4.1c-1.1,1.2-2.6,2.1-4.2,2.7
	c-1.7,0.6-3.6,0.9-5.7,0.9c-3.6,0-6.5-0.8-8.6-2.6c-2.1-1.7-3.2-4-3.2-6.8c0-0.7,0.1-1.6,0.2-2.8c0.1-1.2,0.3-2.9,0.6-4.9l1.2-9.3
	H703.5L703.5,437.6z M725.1,463l3.3-25.4h6.8l-0.6,4c1.6-1.7,3.1-2.9,4.6-3.7c1.5-0.8,3.1-1.2,4.8-1.2c2.7,0,4.9,0.7,6.4,2
	c1.5,1.4,2.3,3.2,2.3,5.6c0,0.9-0.2,2.5-0.4,4.6c0,0.3-0.1,0.4-0.1,0.6l-1.8,13.4h-7.3l1.9-14.2c0.1-0.5,0.1-0.9,0.1-1.3
	c0-0.4,0-0.7,0-0.9c0-1.2-0.3-2.1-1-2.8c-0.7-0.7-1.6-1-2.9-1c-2.1,0-3.8,0.6-5,1.9c-1.2,1.3-1.9,3.2-2.3,5.8l-1.6,12.5H725.1
	L725.1,463z M777.1,448.5c0-1.9-0.5-3.4-1.5-4.5c-1-1.1-2.4-1.6-4.2-1.6c-2.1,0-3.8,0.8-5,2.3c-1.2,1.5-1.8,3.6-1.8,6.2
	c0,1.8,0.5,3.2,1.6,4.3c1.1,1.1,2.5,1.6,4.3,1.6c2.1,0,3.7-0.8,4.9-2.3C776.5,453,777.1,451,777.1,448.5L777.1,448.5z M778.5,437.6
	h7.1l-2.7,20.9c0,0.2-0.1,0.4-0.1,0.8c-0.7,5.7-1.8,9.5-3.1,11.2c-1.1,1.4-2.6,2.4-4.4,3.1c-1.8,0.7-4.1,1-6.8,1
	c-3.7,0-6.6-0.7-8.6-2.2c-2-1.5-3.2-3.8-3.5-6.8l6.7-0.6c0.3,1.4,0.9,2.4,1.8,3.1c0.9,0.7,2.2,1,3.8,1c2.4,0,4.1-0.7,5.2-2.2
	c1.1-1.5,1.7-4.1,1.8-7.8c-1,1.3-2.1,2.3-3.4,3c-1.3,0.6-2.9,1-4.6,1c-3.3,0-5.8-1-7.6-3c-1.8-2-2.7-4.9-2.7-8.6
	c0-4.3,1.1-7.8,3.4-10.5c2.3-2.7,5.2-4.1,8.8-4.1c1.8,0,3.5,0.4,4.9,1.1c1.4,0.7,2.6,1.8,3.6,3.3L778.5,437.6z"/>
<path fill-rule="evenodd" clip-rule="evenodd" fill="#312783" d="M690.9,404.2l3.9-29.8h6.6l-0.4,3H698l-3.1,23.7h3.1l-0.4,3H690.9
	L690.9,404.2z M707.3,393.6h0.9c1.9,0,3.3-0.2,4-0.7c0.7-0.5,1.1-1.3,1.1-2.5c0-1-0.3-1.7-0.9-2.1c-0.6-0.4-1.8-0.6-3.5-0.6h-0.8
	L707.3,393.6L707.3,393.6z M709.3,378.5l-0.7,5.4h0.5c1.7,0,2.9-0.2,3.6-0.7c0.7-0.4,1-1.2,1-2.3c0-0.9-0.3-1.6-0.8-1.9
	c-0.5-0.4-1.6-0.5-3.2-0.5H709.3L709.3,378.5z M702.2,397.3l2.9-22.4h4.6c2,0,3.4,0.1,4.3,0.3c0.9,0.2,1.6,0.5,2.3,1
	c0.6,0.5,1.1,1.1,1.4,1.8c0.3,0.7,0.5,1.4,0.5,2.2c0,1.4-0.4,2.6-1.3,3.6c-0.9,1-2,1.5-3.5,1.7c1.4,0.2,2.5,0.8,3.4,1.6
	c0.8,0.9,1.2,2,1.2,3.3c0,1.2-0.2,2.2-0.7,3.1c-0.5,0.9-1.2,1.7-2.1,2.3c-0.7,0.5-1.6,0.8-2.6,1c-1,0.2-2.8,0.3-5.2,0.3H702.2
	L702.2,397.3z M731.7,388.9c0-1.2-0.3-2.1-0.9-2.7c-0.6-0.7-1.5-1-2.5-1c-1.2,0-2.2,0.5-2.9,1.4c-0.7,0.9-1.1,2.2-1.1,3.8
	c0,1.1,0.3,2,1,2.6c0.6,0.7,1.5,1,2.6,1c1.1,0,2.1-0.5,2.8-1.4C731.3,391.7,731.7,390.5,731.7,388.9L731.7,388.9z M734.7,397.3h-4.3
	l0.2-1.7c-0.5,0.8-1.1,1.3-1.9,1.7c-0.8,0.4-1.6,0.6-2.7,0.6c-1.9,0-3.4-0.6-4.5-1.9c-1.1-1.2-1.6-3-1.6-5.3c0-2.6,0.7-4.8,2-6.4
	c1.4-1.7,3.1-2.5,5.2-2.5c1.1,0,2,0.2,2.8,0.6c0.8,0.4,1.5,1.1,2,1.9l0.3-2.1h4.3L734.7,397.3L734.7,397.3z M740.2,392.4
	c0.5,0.7,1.1,1.3,1.7,1.7c0.6,0.4,1.3,0.6,1.9,0.6c0.5,0,0.9-0.1,1.2-0.4c0.3-0.3,0.5-0.6,0.5-1c0-0.6-0.6-1.3-1.7-1.9
	c-0.5-0.3-0.8-0.5-1.1-0.7c-1.1-0.7-1.8-1.4-2.2-2c-0.4-0.6-0.6-1.4-0.6-2.2c0-1.4,0.5-2.5,1.6-3.5c1.1-0.9,2.5-1.4,4.2-1.4
	c1,0,2,0.2,2.9,0.6c0.9,0.4,1.8,1,2.5,1.8l-2.6,2.3c-0.5-0.6-1.1-1-1.6-1.3c-0.5-0.3-1-0.4-1.5-0.4c-0.5,0-0.9,0.1-1.1,0.4
	c-0.3,0.2-0.4,0.6-0.4,0.9c0,0.5,0.8,1.3,2.3,2.1c0.4,0.3,0.8,0.4,1,0.6c0.8,0.5,1.4,1,1.8,1.7c0.4,0.6,0.6,1.4,0.6,2.2
	c0,1.5-0.5,2.8-1.6,3.7c-1.1,1-2.5,1.4-4.2,1.4c-1.2,0-2.3-0.2-3.3-0.7c-1-0.5-2-1.2-2.9-2.1L740.2,392.4L740.2,392.4z M755.3,376.5
	c0-0.7,0.2-1.3,0.7-1.8c0.5-0.5,1.1-0.7,1.8-0.7c0.7,0,1.3,0.2,1.8,0.7c0.5,0.5,0.7,1.1,0.7,1.8c0,0.7-0.2,1.3-0.7,1.8
	c-0.5,0.5-1.1,0.7-1.8,0.7c-0.7,0-1.3-0.2-1.8-0.7C755.5,377.8,755.3,377.2,755.3,376.5L755.3,376.5z M753,397.3l1.9-15h4.3l-1.9,15
	H753L753,397.3z M774.2,387.1c-0.7-0.5-1.3-0.9-1.9-1.2c-0.6-0.3-1.2-0.4-1.8-0.4c-1.4,0-2.5,0.4-3.4,1.3c-0.9,0.9-1.3,2.1-1.3,3.5
	c0,1.1,0.3,2,1,2.6c0.7,0.6,1.6,1,2.8,1c0.6,0,1.3-0.1,2-0.3c0.7-0.2,1.4-0.5,2.3-0.9l-0.7,4.1c-0.6,0.3-1.3,0.5-2,0.7
	c-0.7,0.1-1.4,0.2-2.2,0.2c-2.3,0-4.2-0.7-5.5-2c-1.4-1.3-2.1-3.1-2.1-5.4c0-2.5,0.8-4.6,2.4-6.3c1.6-1.6,3.7-2.5,6.2-2.5
	c1,0,1.9,0.1,2.8,0.4c0.9,0.3,1.6,0.7,2.4,1.2L774.2,387.1L774.2,387.1z M785.2,374.4h-6.6l-0.4,3h3.1l-3.1,23.7h-3.1l-0.4,3h6.6
	L785.2,374.4z"/>
</svg>
